<?xml version="1.0" encoding="utf-8"?>
<svg version="1.1" id="Alee_Moqadam" xmlns="http://www.w3.org/2000/svg" viewBox="0 0 512 512">
<path fill="#1F488C" d="M381.4,238.2c-29.2,0-53.2-24-53.2-53.2
	c0-29.3,23.8-53.2,53.2-53.2c29.4,0,53.2,24,53.2,53.2C434.6,214.2,410.8,238.2,381.4,238.2z M256.5,166.9
	c-39.5,0-71.7-32.2-71.8-71.9c0-39.7,32.3-71.9,71.8-71.9c39.6,0,71.8,32.3,71.8,71.9C328.2,134.7,296,166.9,256.5,166.9z
	 M149.1,343.7c-19.1,0-34.7-15.6-34.7-34.7c0-19.1,15.6-34.7,34.7-34.7s34.7,15.6,34.7,34.7C183.8,328.2,168.2,343.7,149.1,343.7z
	 M130.6,237.3c-29.4,0-53.2-24-53.2-53.2c0-29.3,23.9-53.2,53.2-53.2c29.2,0,53.2,24,53.2,53.2C183.8,213.3,159.9,237.3,130.6,237.3
	z M167.7,417c9.9,0,18.1,8.1,18.1,18.1c0,9.9-8.1,18.1-18.1,18.1c-10,0-18.1-8-18.1-18.1C149.7,425.1,157.8,417,167.7,417z
	 M256.5,202.2c29.2,0,53.2,23.8,53.2,53.2c0,29.3-23.8,53.2-53.2,53.2c-29.2,0-53.2-24-53.2-53.2
	C203.3,226.1,227.1,202.2,256.5,202.2z M256,346.7c19.1,0,34.7,15.6,34.7,34.7c0,19.1-15.6,34.7-34.7,34.7
	c-19.1,0-34.7-15.6-34.7-34.7C221.3,362.3,236.9,346.7,256,346.7z M257,452.7c9.9,0,18.1,8.1,18.1,18.1s-8.1,18.1-18.1,18.1
	c-9.9,0-18.1-8.1-18.1-18.1S247.1,452.7,257,452.7z M346.8,417c9.9,0,18.1,8.1,18.1,18.1c0,9.9-8.1,18.1-18.1,18.1
	c-9.9,0-18.1-8-18.1-18.1C328.7,425.1,336.8,417,346.8,417z M329.7,309.1c0-19.1,15.6-34.7,34.7-34.7c19.1,0,34.7,15.6,34.7,34.7
	c0,19.1-15.6,34.7-34.7,34.7C345.3,343.7,329.7,328.2,329.7,309.1z"/>
</svg>
